<svg width="18" height="20" viewBox="0 0 18 20" fill="none" xmlns="http://www.w3.org/2000/svg">
<path fill-rule="evenodd" clip-rule="evenodd" d="M2.51603 0.0165834C2.46866 0.028637 2.39601 0.0696013 2.35453 0.107541C2.28468 0.171545 2.27917 0.337893 2.27917 2.38984V4.60307L1.5578 4.61837C0.733539 4.63581 0.626346 4.6705 0.313637 5.02086C-0.0297782 5.40563 -0.00721114 4.98861 0.00618266 10.7041L0.0181553 15.7968L0.132756 15.997C0.284955 16.2628 0.446542 16.4154 0.707225 16.5394L0.92256 16.6419L4.29427 16.6543L7.66597 16.6667L7.63694 16.8322C7.51787 17.5112 7.01235 18.2332 6.08658 19.0463C5.82043 19.2801 5.59131 19.5018 5.57744 19.5392C5.52818 19.6718 5.55367 19.7831 5.65798 19.8908L5.76366 20H9.28959H12.8155L12.9092 19.8971C12.9663 19.8343 13.0028 19.7368 13.0028 19.6475C13.0028 19.5247 12.9624 19.464 12.7552 19.2753C11.7519 18.3615 11.1265 17.4936 10.9627 16.7876L10.9345 16.6664L14.0036 16.6542L17.0726 16.6419L17.288 16.5394C17.5487 16.4154 17.7102 16.2628 17.8624 15.997L17.977 15.7968L17.9885 10.6875L18 5.57808L17.8975 5.35008C17.7612 5.04674 17.5202 4.80976 17.2368 4.70021C17.0422 4.62504 16.901 4.61059 16.3604 4.61059H15.716V2.39358C15.716 0.19623 15.7152 0.175815 15.6254 0.0918403C15.5371 0.00937801 15.3623 0.00693167 9.06844 0.000882657C5.51198 -0.00258663 2.56341 0.00448541 2.51603 0.0165834ZM15.07 7.50166V14.3068H8.9976H2.92517V7.50166V0.69652H8.9976H15.07V7.50166ZM8.2643 1.81105C7.36442 1.94795 6.54976 2.56295 6.12624 3.42507C5.95798 3.76751 5.85363 4.26371 5.85436 4.71778C5.8557 5.56767 6.09455 6.15273 6.69184 6.76933C7.28655 7.38322 7.86119 7.63376 8.6746 7.63376C9.78521 7.63376 10.7396 7.02588 11.2194 6.01289C11.3875 5.658 11.4056 5.45185 11.2801 5.32224C11.0976 5.13374 10.8412 5.23093 10.7145 5.53662C10.667 5.65111 10.5776 5.82755 10.5157 5.9287L10.4031 6.11261L10.1418 5.88769C9.25893 5.12796 8.02618 5.13939 7.20343 5.91495L6.97574 6.12965L6.84525 5.91713C6.20165 4.86901 6.4952 3.49988 7.50869 2.82279C7.86059 2.58768 8.23588 2.47551 8.66835 2.47618C9.30613 2.47711 9.81126 2.69821 10.2605 3.17297C10.4895 3.41502 10.548 3.45407 10.6813 3.45412C10.9124 3.4542 11.0575 3.24582 10.9776 3.02873C10.9133 2.85411 10.5275 2.45674 10.2236 2.25232C9.90054 2.03491 9.47013 1.87167 9.05781 1.81012C8.72059 1.75977 8.60048 1.7599 8.2643 1.81105ZM8.38381 2.93688C7.98402 3.09051 7.74832 3.43521 7.74909 3.86509C7.74987 4.30431 8.04104 4.75408 8.42184 4.90428C9.27138 5.23933 10.0046 3.91598 9.3694 3.1941C9.14687 2.94119 8.68575 2.82084 8.38381 2.93688ZM11.3561 3.43957C11.1841 3.65173 10.9948 3.88213 10.9356 3.95156L10.8279 4.07783L10.6388 3.92167C10.3837 3.71093 10.1466 3.72081 10.0293 3.94707C9.93891 4.12155 10.0211 4.27798 10.3495 4.55633C10.5218 4.70239 10.7043 4.84486 10.7552 4.87297C10.9422 4.97633 11.053 4.88782 11.605 4.1937C12.0443 3.64119 12.1401 3.49504 12.1408 3.37632C12.1417 3.18378 12.0122 3.05386 11.8191 3.05386C11.6832 3.05386 11.6392 3.09046 11.3561 3.43957ZM8.87215 3.55566C9.06965 3.71227 9.07379 3.97651 8.88244 4.21135C8.74239 4.38326 8.60561 4.38179 8.4631 4.20686C8.305 4.01285 8.30595 3.72009 8.46508 3.59084C8.59126 3.48832 8.76797 3.47306 8.87215 3.55566ZM2.26862 9.8034L2.2796 14.3068H1.46111H0.642625L0.642797 10.0036C0.642927 5.76738 0.644305 5.69799 0.72975 5.55321C0.868037 5.31899 1.01343 5.27856 1.67623 5.28999L2.25763 5.3L2.26862 9.8034ZM17.03 5.34181C17.1117 5.37704 17.2175 5.47208 17.2653 5.55308C17.3509 5.69808 17.3523 5.76582 17.3524 10.0036L17.3526 14.3068H16.5343H15.716V9.82195C15.716 7.35524 15.729 5.32371 15.7448 5.30743C15.8034 5.2468 16.8764 5.27549 17.03 5.34181ZM9.39067 6.11146C9.54162 6.18823 9.72935 6.31957 9.80786 6.40328L9.95058 6.55548L9.78633 6.65623C9.36367 6.91535 8.72736 7.02731 8.25414 6.92572C8.11766 6.89641 7.86912 6.80171 7.70185 6.71529L7.39771 6.55815L7.4928 6.45363C7.81261 6.10207 8.22886 5.93701 8.74467 5.95725C9.05703 5.96948 9.15988 5.99404 9.39067 6.11146ZM4.64014 9.2819C4.53467 9.39083 4.51541 9.43957 4.53914 9.53765C4.55525 9.60432 4.59901 9.69386 4.63635 9.73669C4.70017 9.80981 4.96331 9.81452 8.9976 9.81452C13.0319 9.81452 13.295 9.80981 13.3589 9.73669C13.3962 9.69386 13.4399 9.60432 13.4561 9.53765C13.4798 9.43957 13.4605 9.39083 13.3551 9.2819L13.2248 9.14735H8.9976H4.77041L4.64014 9.2819ZM6.82854 10.7963C6.68702 10.9112 6.67513 11.1323 6.80287 11.2739L6.89068 11.3713H8.9976H11.1045L11.1923 11.2739C11.312 11.1413 11.3044 10.9475 11.1744 10.8133L11.0687 10.7041H9.00535C6.98315 10.7041 6.93973 10.7059 6.82854 10.7963ZM8.15078 12.2376C8.10082 12.2737 8.04767 12.3539 8.0326 12.4158C8.00112 12.5454 8.09763 12.7697 8.2028 12.8114C8.29367 12.8474 9.70153 12.8474 9.7924 12.8114C9.89757 12.7697 9.99408 12.5454 9.9626 12.4158C9.9089 12.1949 9.81794 12.1719 8.9976 12.1719C8.40056 12.1719 8.22248 12.1857 8.15078 12.2376ZM17.3526 15.2675C17.3526 15.5667 17.2658 15.774 17.0976 15.8766C16.9816 15.9474 16.4379 15.9525 8.9976 15.9525C1.55732 15.9525 1.01365 15.9474 0.897581 15.8766C0.729405 15.774 0.642625 15.5667 0.642625 15.2675V15.0185H8.9976H17.3526V15.2675ZM10.3073 16.8532C10.3796 17.35 10.8413 18.1617 11.4711 18.8992L11.8414 19.3328H9.32129C7.93523 19.3328 6.80119 19.3199 6.80119 19.3042C6.80119 19.2884 6.95317 19.1121 7.13892 18.9123C7.76373 18.2401 8.16576 17.5483 8.27403 16.959L8.32817 16.6641H9.30402H10.2798L10.3073 16.8532Z" fill="#404040"/>
</svg>
