<svg width="16" height="16" viewBox="0 0 16 16" fill="none" xmlns="http://www.w3.org/2000/svg">
<path fill-rule="evenodd" clip-rule="evenodd" d="M8.0013 7.99967C6.16035 7.99967 4.66797 6.50729 4.66797 4.66634C4.66797 2.82539 6.16035 1.33301 8.0013 1.33301C9.84225 1.33301 11.3346 2.82539 11.3346 4.66634C11.3346 6.50729 9.84225 7.99967 8.0013 7.99967Z" stroke="#878787" stroke-linecap="round" stroke-linejoin="round"/>
<path d="M10.446 12.8534C10.3527 12.9467 10.266 13.12 10.246 13.2467L10.1194 14.1467C10.0727 14.4733 10.2994 14.7 10.626 14.6533L11.526 14.5267C11.6527 14.5067 11.8327 14.42 11.9194 14.3267L14.2794 11.9667C14.686 11.56 14.8794 11.0867 14.2794 10.4867C13.686 9.89334 13.2127 10.0867 12.8061 10.4933L10.446 12.8534Z" stroke="#878787" stroke-linecap="round" stroke-linejoin="round"/>
<path d="M12.4648 10.833C12.6648 11.553 13.2248 12.113 13.9448 12.313" stroke="#878787" stroke-linecap="round" stroke-linejoin="round"/>
<path d="M2.27344 14.6667C2.27344 12.0867 4.84012 10 8.00012 10C8.69346 10 9.3601 10.1 9.9801 10.2867" stroke="#878787" stroke-linecap="round" stroke-linejoin="round"/>
</svg>
