<svg width="182" height="182" viewBox="0 0 182 182" fill="none" xmlns="http://www.w3.org/2000/svg">
<mask id="mask0_1999_11131" style="mask-type:luminance" maskUnits="userSpaceOnUse" x="0" y="0" width="182" height="182">
<path d="M182 0H0V182H182V0Z" fill="white"/>
</mask>
<g mask="url(#mask0_1999_11131)">
<g opacity="0.75">
<path d="M118.746 36.8576C101.78 19.8916 75.8594 17.3254 56.1852 29.1627C52.6835 31.2702 49.3784 33.8364 46.3536 36.8576C30.3485 52.8627 27.1598 76.8285 36.7876 96.0113C39.1828 100.783 42.3714 105.261 46.3536 109.246C64.9976 127.89 94.4452 129.146 114.542 113.014C115.994 111.849 117.395 110.593 118.742 109.246C120.089 107.9 121.345 106.498 122.506 105.049C138.642 84.953 137.386 55.5054 118.742 36.8613L118.746 36.8576ZM114.061 98.2826C113.144 99.4256 112.154 100.532 111.091 101.595C110.028 102.658 108.925 103.648 107.782 104.565C91.9336 117.287 68.7068 116.301 54.0048 101.595C38.24 85.8302 38.24 60.2701 54.0048 44.5053C69.7697 28.7441 95.3298 28.7404 111.095 44.5053C125.8 59.2072 126.787 82.4341 114.065 98.2826H114.061Z" fill="#FFBA45"/>
</g>
<path d="M82.5626 124.783C81.6708 124.783 80.7754 124.761 79.88 124.714C67.0854 124.055 55.0406 118.7 45.9733 109.629C42.0276 105.684 38.7771 101.185 36.3019 96.2524C31.468 86.6173 29.779 75.8648 31.4243 65.1595C33.1023 54.2322 38.1328 44.3096 45.977 36.469C48.9727 33.4733 52.3142 30.8598 55.9106 28.694C65.6257 22.8445 77.2155 20.3475 88.5468 21.6615C94.2143 22.3204 99.6888 23.8892 104.818 26.3353C110.125 28.8614 114.94 32.2721 119.137 36.469C128.205 45.5363 133.563 57.5774 134.222 70.3756C134.877 83.0792 130.869 95.5098 122.945 105.385C121.762 106.859 120.481 108.286 119.141 109.629C117.798 110.973 116.367 112.254 114.897 113.433C105.72 120.801 94.3308 124.779 82.5663 124.779L82.5626 124.783ZM82.5444 22.375C73.59 22.375 64.5774 24.7555 56.4711 29.6331C52.9512 31.7516 49.6789 34.3142 46.745 37.2444C31.2787 52.7107 27.4712 76.2288 37.2774 95.7646C39.698 100.591 42.883 104.999 46.745 108.858C56.6022 118.715 69.5642 123.727 82.5772 123.731C93.7265 123.731 104.905 120.051 114.209 112.585C115.647 111.431 117.048 110.179 118.366 108.858C119.68 107.544 120.932 106.146 122.089 104.704C138.269 84.5462 136.671 55.5463 118.366 37.2444C108.574 27.4564 95.6266 22.375 82.5481 22.375H82.5444Z" fill="#FFBA45"/>
<g opacity="0.25">
<path d="M114.064 98.2842C113.146 99.4272 112.156 100.534 111.093 101.597C110.03 102.659 108.928 103.65 107.785 104.567C91.936 117.289 68.7092 116.302 54.0072 101.597C38.2424 85.8317 38.2424 60.2717 54.0072 44.5068C69.7721 28.7456 95.3322 28.742 111.097 44.5068C125.803 59.2088 126.789 82.4356 114.067 98.2842H114.064Z" fill="#FFBA45"/>
</g>
<path d="M50.5258 62.2451C50.4675 62.2451 50.402 62.2342 50.3438 62.2123C50.0598 62.114 49.9106 61.7974 50.0125 61.5171C51.7343 56.654 54.4679 52.3188 58.1479 48.646C59.1635 47.6305 60.2482 46.6695 61.373 45.7959C61.6096 45.6103 61.9554 45.654 62.1374 45.8906C62.323 46.1308 62.2793 46.4729 62.0427 46.6586C60.9544 47.5067 59.9024 48.4386 58.916 49.4214C55.3561 52.9813 52.7061 57.1746 51.039 61.8847C50.9589 62.1068 50.7478 62.2487 50.5258 62.2487V62.2451Z" fill="#FFBA45"/>
<path d="M67.5929 104.115C67.5128 104.115 67.4327 104.096 67.3526 104.06C63.9456 102.389 60.8443 100.169 58.1398 97.4643C54.4415 93.7661 51.6933 89.4017 49.9716 84.5023C49.8733 84.2184 50.0226 83.9053 50.3065 83.807C50.5904 83.7051 50.9035 83.858 51.0017 84.1419C52.6652 88.8885 55.3261 93.1109 58.9115 96.6926C61.5323 99.3134 64.5353 101.465 67.8331 103.081C68.1025 103.212 68.2153 103.539 68.0843 103.812C67.9896 104.005 67.7931 104.118 67.5929 104.118V104.115Z" fill="#FFBA45"/>
<path d="M115.922 67.21C115.667 67.21 115.438 67.028 115.387 66.7659C114.131 60.1739 110.953 54.1751 106.189 49.4177C102.064 45.2935 96.9284 42.3124 91.3337 40.7945C91.0425 40.7181 90.8715 40.4159 90.9479 40.1247C91.0243 39.8335 91.3265 39.6625 91.6177 39.7389C97.398 41.3077 102.701 44.3835 106.96 48.646C111.878 53.5636 115.161 59.7589 116.461 66.5621C116.515 66.8605 116.322 67.1445 116.024 67.2027C115.991 67.21 115.955 67.2136 115.922 67.2136V67.21Z" fill="#FFBA45"/>
<path d="M82.5615 113.969C81.8553 113.969 81.1492 113.951 80.4394 113.914C70.3202 113.394 60.7943 109.157 53.6235 101.986C45.8958 94.2582 41.6406 83.9861 41.6406 73.0552C41.6406 62.1243 45.8958 51.8522 53.6235 44.1281C61.3512 36.4004 71.6233 32.1416 82.5542 32.1416C93.4851 32.1416 103.757 36.3968 111.485 44.1281C118.656 51.2989 122.893 60.8212 123.413 70.944C123.93 80.9904 120.763 90.822 114.492 98.6298C113.567 99.7874 112.555 100.912 111.485 101.986C110.415 103.06 109.297 104.057 108.129 104.993C100.871 110.82 91.8617 113.969 82.5615 113.969ZM82.5506 33.2336C71.9145 33.2336 61.9154 37.3759 54.3915 44.8998C38.8669 60.4244 38.8669 85.6896 54.3915 101.214C62.1447 108.967 72.3367 112.906 82.5651 112.906C91.3339 112.906 100.124 110.012 107.441 104.141C108.577 103.227 109.676 102.244 110.706 101.211C111.736 100.177 112.737 99.0666 113.636 97.9419C126.362 82.0897 125.102 59.2887 110.706 44.8962C103.186 37.3759 93.183 33.23 82.5506 33.23V33.2336Z" fill="#FFBA45"/>
<path d="M122.511 105.046L131.484 114.018L123.519 121.983L114.547 113.01C115.999 111.845 117.401 110.59 118.744 109.246C120.087 107.903 121.346 106.498 122.508 105.05L122.511 105.046Z" fill="#FFBA45"/>
<g opacity="0.5">
<path d="M161.824 143.855L153.347 152.332C151.621 154.061 148.822 154.061 147.093 152.332L123.255 128.494C121.53 126.768 121.53 123.969 123.255 122.24L131.736 113.763C133.462 112.037 136.261 112.037 137.99 113.763L161.824 137.597C163.55 139.326 163.55 142.126 161.824 143.855Z" fill="#FFBA45"/>
</g>
<path d="M150.225 154.172C148.897 154.172 147.648 153.655 146.713 152.716L122.878 128.882C120.942 126.945 120.942 123.793 122.878 121.856L131.359 113.379C132.295 112.44 133.543 111.923 134.872 111.923C136.201 111.923 137.445 112.44 138.385 113.379L162.223 137.214C164.156 139.154 164.156 142.302 162.223 144.242L153.742 152.72C152.803 153.659 151.558 154.176 150.229 154.176L150.225 154.172ZM134.868 113.015C133.835 113.015 132.863 113.419 132.131 114.151L123.65 122.628C122.139 124.139 122.139 126.599 123.65 128.106L147.485 151.945C148.216 152.676 149.192 153.08 150.225 153.08C151.259 153.08 152.231 152.676 152.963 151.945L161.444 143.467C162.955 141.956 162.955 139.496 161.444 137.985L137.609 114.151C136.878 113.419 135.906 113.015 134.868 113.015Z" fill="#FFBA45"/>
<path d="M71.7861 68.4834C73.9628 68.4834 75.7246 66.7216 75.7246 64.5449C75.7246 62.3682 73.9628 60.6064 71.7861 60.6064C69.6094 60.6064 67.8477 62.3682 67.8477 64.5449C67.8477 66.7216 69.6094 68.4834 71.7861 68.4834Z" fill="#FFBA45"/>
<path d="M93.3135 68.4834C95.4902 68.4834 97.252 66.7216 97.252 64.5449C97.252 62.3682 95.4902 60.6064 93.3135 60.6064C91.1368 60.6064 89.375 62.3682 89.375 64.5449C89.375 66.7216 91.1368 68.4834 93.3135 68.4834Z" fill="#FFBA45"/>
<path d="M96.6053 85.409C95.9937 85.642 95.3058 85.4236 94.9418 84.8812C93.7879 83.134 90.4755 79.6323 82.5549 79.6323C74.6342 79.6323 71.3437 83.1268 70.1752 84.874C69.8076 85.4163 69.1269 85.642 68.5118 85.4127H68.5081C67.6673 85.0923 67.336 84.0804 67.8383 83.3233C69.389 80.9937 73.4476 76.8223 82.5585 76.8223C91.6694 76.8223 95.7207 80.9974 97.2787 83.3233C97.7773 84.0768 97.4498 85.0923 96.6089 85.4127L96.6053 85.409Z" fill="#FFBA45"/>
<path d="M151.513 148.665C151.375 148.665 151.244 148.614 151.138 148.512L125.509 124.011C125.29 123.804 125.283 123.458 125.491 123.24C125.702 123.021 126.044 123.014 126.262 123.225L151.888 147.726C152.106 147.934 152.114 148.279 151.906 148.498C151.797 148.611 151.655 148.669 151.509 148.669L151.513 148.665Z" fill="#FFBA45"/>
<g opacity="0.5">
<path d="M32.2536 124.161L42.6932 160.131L70.4736 151.504L61.8541 125.034L49.2706 119.334L32.25 124.161H32.2536Z" fill="#FFBA45"/>
</g>
<path d="M42.3231 160.819L31.5742 123.785L49.3156 118.755L62.2995 124.637L71.1629 151.861L42.3195 160.815L42.3231 160.819ZM32.9283 124.535L43.0621 159.443L69.7833 151.144L61.4077 125.431L49.2246 119.912L32.9247 124.532L32.9283 124.535Z" fill="#FFBA45"/>
<path d="M49.2695 119.338L53.2226 127.896L61.8566 125.042L49.2732 119.342L49.2695 119.338Z" fill="#FFBA45"/>
<path d="M41.1848 140.282C40.9628 140.282 40.7553 140.148 40.6716 139.929C40.566 139.645 40.708 139.332 40.9919 139.223L59.6141 132.209C59.8944 132.103 60.2111 132.245 60.3167 132.529C60.4222 132.813 60.2803 133.126 59.9963 133.235L41.3777 140.249C41.3122 140.271 41.2503 140.282 41.1848 140.282Z" fill="#FFBA45"/>
<path d="M42.4141 144.315C42.1885 144.315 41.9773 144.173 41.9009 143.947C41.8026 143.663 41.9555 143.35 42.2394 143.252L50.3166 140.457C50.6005 140.358 50.9099 140.511 51.0118 140.795C51.1101 141.079 50.9572 141.388 50.6733 141.49L42.5998 144.286C42.5416 144.308 42.4797 144.319 42.4214 144.319L42.4141 144.315Z" fill="#FFBA45"/>
<path d="M53.9846 149.545C53.7589 149.545 53.5478 149.403 53.4677 149.178C53.3694 148.894 53.5186 148.581 53.8062 148.483L62.3857 145.527C62.6696 145.429 62.9826 145.581 63.0773 145.865C63.1719 146.149 63.0263 146.462 62.7388 146.561L54.1593 149.516C54.101 149.538 54.0428 149.545 53.9809 149.545H53.9846Z" fill="#FFBA45"/>
<g opacity="0.5">
<path d="M147.811 75.8389L138.066 102.753L159.109 109.931L165.698 89.7036L160.492 80.5199L147.811 75.8389Z" fill="#FFBA45"/>
</g>
<path d="M159.462 110.624L137.367 103.089L147.486 75.1338L160.871 80.0733L166.294 89.6428L159.458 110.624H159.462ZM138.772 102.416L158.767 109.233L165.108 89.7629L160.121 80.9578L148.138 76.5388L138.772 102.416Z" fill="#FFBA45"/>
<path d="M160.494 80.5166L159.082 87.5782L165.7 89.7003L160.494 80.5166Z" fill="#FFBA45"/>
<path d="M160.982 94.0726C160.935 94.0726 160.884 94.0653 160.837 94.0507L146.182 90.0031C145.891 89.923 145.723 89.6209 145.8 89.3297C145.876 89.0385 146.182 88.8674 146.469 88.9475L161.128 92.9951C161.419 93.0752 161.586 93.3773 161.51 93.6685C161.441 93.9088 161.226 94.0689 160.986 94.0689L160.982 94.0726Z" fill="#FFBA45"/>
<path d="M151.513 94.9779C151.458 94.9779 151.404 94.9706 151.353 94.9524L145.11 93.0451C144.823 92.9577 144.659 92.652 144.746 92.3608C144.834 92.0732 145.139 91.913 145.43 92.0004L151.677 93.9078C151.964 93.9951 152.128 94.3009 152.037 94.5921C151.964 94.8287 151.75 94.9779 151.517 94.9779H151.513Z" fill="#FFBA45"/>
<path d="M156.684 103.54C156.629 103.54 156.575 103.532 156.524 103.518L149.895 101.483C149.608 101.396 149.444 101.086 149.531 100.799C149.622 100.511 149.928 100.347 150.216 100.438L156.844 102.473C157.132 102.56 157.292 102.866 157.204 103.157C157.132 103.39 156.917 103.543 156.684 103.543V103.54Z" fill="#FFBA45"/>
<g opacity="0.5">
<path d="M135.486 33.502L135.078 55.7496H152.361L152.128 39.2095L145.995 33.7568L135.489 33.502H135.486Z" fill="#FFBA45"/>
</g>
<path d="M134.523 56.2966L134.949 32.9424L146.208 33.219L152.672 38.9629L152.916 56.293L134.523 56.3003V56.2966ZM136.019 34.0635L135.634 55.2083L151.806 55.201L151.584 39.4616L145.778 34.3037L136.019 34.0671V34.0635Z" fill="#FFBA45"/>
<path d="M145.996 33.7568L146.731 39.3115L152.129 39.2096L145.996 33.7568Z" fill="#FFBA45"/>
<path d="M137.809 44.4596C137.521 44.4596 137.281 44.2376 137.267 43.9464C137.248 43.6442 137.478 43.3858 137.78 43.3676L149.577 42.6651C149.879 42.6469 150.134 42.8762 150.156 43.1783C150.178 43.4804 149.945 43.7352 149.643 43.7571L137.842 44.4596H137.809Z" fill="#FFBA45"/>
<path d="M137.804 46.962C137.509 46.962 137.269 46.7291 137.258 46.4342C137.251 46.1321 137.484 45.8809 137.786 45.87L142.86 45.7062C143.162 45.6989 143.413 45.9319 143.424 46.234C143.431 46.5361 143.198 46.7873 142.896 46.7982L137.822 46.962H137.804Z" fill="#FFBA45"/>
<path d="M143.445 51.9688C143.153 51.9688 142.91 51.7358 142.899 51.4373C142.891 51.1352 143.124 50.8841 143.43 50.8768L148.817 50.7093C149.119 50.6984 149.371 50.935 149.381 51.2371C149.392 51.5393 149.156 51.7904 148.854 51.8013L143.463 51.9688H143.445Z" fill="#FFBA45"/>
<g opacity="0.5">
<path d="M56.1882 29.165C54.5938 30.1259 53.0396 31.1779 51.5362 32.3281C49.7381 33.7041 48.0054 35.2147 46.3602 36.8599C30.3551 52.865 27.1664 76.8308 36.7942 96.0136L21.4735 97.4186L16.3047 26.6461L49.7454 24.4111L56.1918 29.165H56.1882Z" fill="#FFBA45"/>
</g>
<path d="M20.9637 98.0154L15.7148 26.1436L49.9017 23.8613L57.1708 29.2194L56.4683 29.6416C54.8812 30.5953 53.3342 31.6509 51.8637 32.772C50.0728 34.1407 48.3511 35.6476 46.7422 37.2529C31.2758 52.7192 27.4684 76.2373 37.2746 95.7732L37.6349 96.4902L20.9601 98.019L20.9637 98.0154ZM16.8869 27.1555L21.972 96.8251L35.9496 95.5438C31.385 86.0944 29.8198 75.6076 31.4214 65.168C33.0995 54.2408 38.13 44.3181 45.9742 36.4776C47.6158 34.8359 49.3739 33.2962 51.2048 31.9021C52.4898 30.9193 53.8366 29.9911 55.2161 29.132L49.5814 24.9788L16.8906 27.1628L16.8869 27.1555Z" fill="#FFBA45"/>
<path d="M56.1886 29.1633C54.5943 30.1242 53.04 31.1762 51.5367 32.3264L49.7422 24.4131L56.1886 29.1669V29.1633Z" fill="#FFBA45"/>
<g opacity="0.5">
<path d="M75.8778 137.198C77.949 137.198 79.6307 135.516 79.6307 133.445C79.6307 131.374 77.949 129.692 75.8778 129.692C73.8067 129.692 72.125 131.374 72.125 133.445C72.125 135.516 73.8067 137.198 75.8778 137.198Z" fill="#FFBA45"/>
<path d="M98.2772 129.449C99.0452 129.449 99.664 128.827 99.664 128.062C99.664 127.298 99.0416 126.672 98.2772 126.672C97.5128 126.672 96.8867 127.294 96.8867 128.062C96.8867 128.83 97.5092 129.449 98.2772 129.449Z" fill="#FFBA45"/>
<path d="M110.336 141.781C112.491 141.781 114.238 140.034 114.238 137.879C114.238 135.724 112.491 133.977 110.336 133.977C108.181 133.977 106.434 135.724 106.434 137.879C106.434 140.034 108.181 141.781 110.336 141.781Z" fill="#FFBA45"/>
<path d="M121.112 29.5746C122.539 29.5746 123.693 28.4207 123.693 26.9938C123.693 25.567 122.539 24.4131 121.112 24.4131C119.685 24.4131 118.531 25.567 118.531 26.9938C118.531 28.4207 119.685 29.5746 121.112 29.5746Z" fill="#FFBA45"/>
</g>
<g opacity="0.25">
<path d="M19.8861 129.038C24.4034 129.038 28.0652 125.376 28.0652 120.859C28.0652 116.342 24.4034 112.68 19.8861 112.68C15.3689 112.68 11.707 116.342 11.707 120.859C11.707 125.376 15.3689 129.038 19.8861 129.038Z" fill="#FFBA45"/>
</g>
</g>
</svg>
