<svg width="16" height="18" viewBox="0 0 16 18" fill="none" xmlns="http://www.w3.org/2000/svg">
<path fill-rule="evenodd" clip-rule="evenodd" d="M7.70717 0.0153936C7.43573 0.0499523 7.05375 0.195871 6.86129 0.338566C6.53621 0.579464 0.682957 5.37611 0.552774 5.50831C0.360647 5.70329 0.203548 5.94993 0.0996751 6.21957L0.0142261 6.44143L0.00289107 11.2954C-0.00529747 14.8 0.00349759 16.2119 0.0345458 16.3742C0.184972 17.1609 0.858176 17.8112 1.68226 17.9656C1.84797 17.9967 3.59732 18.0052 8.12695 17.9971L14.3442 17.986L14.5863 17.8995C15.2643 17.6574 15.7743 17.1004 15.935 16.4266C16.0205 16.0678 16.0222 6.6983 15.9368 6.37408C15.8583 6.07617 15.6769 5.73564 15.4888 5.53309C15.3073 5.33765 9.28809 0.436994 9.03348 0.277357C8.69324 0.0640081 8.15708 -0.0418793 7.70717 0.0153936ZM8.3254 1.28027C8.42685 1.32045 9.58507 2.24304 11.4719 3.78671C13.1142 5.13026 14.5039 6.27722 14.5601 6.33551C14.7934 6.57712 14.7801 6.27074 14.7801 11.4368V16.1534L14.6841 16.3439C14.5815 16.5474 14.3889 16.7067 14.1705 16.7687C14.0889 16.7918 11.8022 16.8053 7.95146 16.8053H1.8615L1.65876 16.7006C1.51114 16.6243 1.42489 16.5461 1.34164 16.413L1.22734 16.2302L1.21612 11.5045C1.20835 8.22094 1.21733 6.73638 1.24558 6.6399C1.26794 6.56351 1.33072 6.44874 1.38512 6.38483C1.56918 6.1686 7.53221 1.32371 7.68067 1.26985C7.87462 1.19942 8.13168 1.20358 8.3254 1.28027ZM4.05125 14.2659C3.86913 14.3884 3.7805 14.525 3.75862 14.7171C3.73448 14.929 3.85359 15.1588 4.05019 15.2797L4.18432 15.3622H7.99426H11.8042L11.9437 15.2765C12.1309 15.1614 12.2569 14.9055 12.2286 14.6976C12.2044 14.5192 12.1135 14.3844 11.9373 14.2659L11.8119 14.1815H7.99426H4.17658L4.05125 14.2659Z" fill="#878787"/>
</svg>
