<svg width="16" height="16" viewBox="0 0 16 16" fill="none" xmlns="http://www.w3.org/2000/svg">
<path fill-rule="evenodd" clip-rule="evenodd" d="M7.78105 0.0363138C7.65013 0.0956826 7.51508 0.260521 7.49202 0.389105C7.48175 0.44631 7.47755 2.22298 7.48265 4.33731L7.49196 8.18153L7.58505 8.30349C7.80598 8.59298 8.19989 8.58061 8.42667 8.27705C8.49296 8.18834 8.49331 8.16984 8.50174 4.30002C8.51108 0.00467628 8.52396 0.274628 8.30154 0.105077C8.16191 -0.00136073 7.93131 -0.0318361 7.78105 0.0363138ZM3.02667 1.71391C2.90048 1.78396 2.3803 2.25727 2.15204 2.50969C0.957943 3.83024 0.283181 5.26551 0.0418619 6.99815C-0.0140829 7.39995 -0.0139214 8.59976 0.0421526 8.99971C0.373235 11.3612 1.60706 13.3459 3.56157 14.661C4.25736 15.1292 5.26725 15.5747 6.08688 15.7751C7.54264 16.131 9.13225 16.0627 10.5605 15.5828C11.3449 15.3192 12.3738 14.752 13.0205 14.2265C14.3578 13.1399 15.3463 11.5966 15.7584 9.95207C16.3054 7.76934 15.9142 5.47122 14.6803 3.61894C14.3227 3.08198 14.0733 2.78407 13.5737 2.29685C13.041 1.77738 12.9183 1.69128 12.7114 1.69128C12.3438 1.69128 12.0766 2.09785 12.2385 2.41084C12.2643 2.46065 12.444 2.6425 12.6378 2.81496C14.7251 4.67212 15.4839 7.50545 14.6099 10.1781C13.7516 12.8025 11.4189 14.6638 8.64328 14.939C6.88648 15.1131 5.05729 14.5645 3.62265 13.4333C3.49455 13.3322 3.22988 13.0883 3.03446 12.8912C0.598403 10.434 0.339093 6.55245 2.42556 3.77594C2.69808 3.41323 3.08233 2.99865 3.39096 2.73422C3.54475 2.60244 3.69097 2.45542 3.71591 2.40748C3.8244 2.19877 3.72883 1.86564 3.52423 1.73925C3.39913 1.66197 3.14367 1.64896 3.02667 1.71391Z" fill="#878787"/>
</svg>
