<svg width="20" height="20" viewBox="0 0 20 20" fill="none" xmlns="http://www.w3.org/2000/svg">
<path fill-rule="evenodd" clip-rule="evenodd" d="M0.13416 0.134367L0 0.268735L0.0143994 9.32087L0.0287446 18.373L0.231696 18.7843C0.476106 19.2796 0.790776 19.5881 1.2959 19.8278L1.65887 20H10.0025H18.3462L18.7568 19.7967C19.2513 19.5519 19.5594 19.2368 19.7987 18.7309L19.9707 18.3673L19.9853 11.9306L20 5.49382L19.8655 5.35913L19.7311 5.22449H18.1256H16.5202V2.74585V0.267156L16.3868 0.133606L16.2535 0H8.2609H0.268319L0.13416 0.134367ZM15.6636 9.62253L15.678 18.3743L15.8718 18.7654L16.0657 19.1565H9.03157C3.66768 19.1565 1.94442 19.1407 1.77385 19.0903C1.47538 19.002 1.02524 18.5511 0.937053 18.2522C0.88641 18.0805 0.870978 16.0259 0.870978 9.44947V0.870748H8.26008H15.6492L15.6636 9.62253ZM3.61258 3.6166L3.47918 3.75015V5.65986V7.56958L3.61258 7.70313L3.74593 7.83673H8.2609H12.7759L12.9092 7.70313L13.0426 7.56958V5.65986V3.75015L12.9092 3.6166L12.7759 3.48299H8.2609H3.74593L3.61258 3.6166ZM12.1732 5.65986V6.96599H8.2609H4.34859V5.65986V4.35374H8.2609H12.1732V5.65986ZM19.1284 12.0617C19.1284 16.5872 19.1124 18.0823 19.0623 18.2522C18.9244 18.7199 18.3267 19.1565 17.8243 19.1565C17.322 19.1565 16.7243 18.7199 16.5863 18.2522C16.5362 18.0823 16.5202 16.5872 16.5202 12.0617V6.09524H17.8243H19.1284V12.0617ZM3.61258 10.5826C3.52847 10.6668 3.47918 10.7783 3.47918 10.8844C3.47918 10.9904 3.52847 11.1019 3.61258 11.1861L3.74593 11.3197H8.2609H12.7759L12.9092 11.1861C12.9933 11.1019 13.0426 10.9904 13.0426 10.8844C13.0426 10.7783 12.9933 10.6668 12.9092 10.5826L12.7759 10.449H8.2609H3.74593L3.61258 10.5826ZM3.61258 13.1948C3.52847 13.279 3.47918 13.3906 3.47918 13.4966C3.47918 13.6026 3.52847 13.7142 3.61258 13.7984L3.74593 13.932H8.2609H12.7759L12.9092 13.7984C12.9933 13.7142 13.0426 13.6026 13.0426 13.4966C13.0426 13.3906 12.9933 13.279 12.9092 13.1948L12.7759 13.0612H8.2609H3.74593L3.61258 13.1948ZM3.61258 15.8071C3.52847 15.8913 3.47918 16.0028 3.47918 16.1088C3.47918 16.2149 3.52847 16.3264 3.61258 16.4106L3.74593 16.5442H8.2609H12.7759L12.9092 16.4106C12.9933 16.3264 13.0426 16.2149 13.0426 16.1088C13.0426 16.0028 12.9933 15.8913 12.9092 15.8071L12.7759 15.6735H8.2609H3.74593L3.61258 15.8071Z" fill="#404040"/>
</svg>
