<svg xmlns="http://www.w3.org/2000/svg" width="579.772" height="487.539" viewBox="0 0 579.772 487.539">
  <g id="Picture_Icon" transform="translate(-396.741 -271.774)">
    <path id="Union_14" data-name="Union 14" d="M-8142.637-11369.462c-90.529-.03-147.033-5.871-157.444-7.043-.541-.057-1.41-.155-2.365-.274a136.224,136.224,0,0,1-45.959-14.362,140.287,140.287,0,0,1-36.685-27.609,147.363,147.363,0,0,1-25.458-36.357,151.151,151.151,0,0,1-13.678-41.944c-.357-2.039-2.25-13.337-4.08-32.7-2.416-25.615-3.656-53.5-3.7-82.891v-.137c.039-29.409,1.279-57.3,3.7-82.929,1.818-19.239,3.723-30.659,4.089-32.751a151.34,151.34,0,0,1,13.669-41.9,147.616,147.616,0,0,1,25.461-36.349,140.246,140.246,0,0,1,36.682-27.609,136.283,136.283,0,0,1,45.905-14.354c.768-.1,1.583-.2,2.476-.295,10.354-1.163,66.77-7,157.381-7.033h.051c90.645.032,147.042,5.87,157.429,7.04.857.089,1.675.19,2.455.288a136.226,136.226,0,0,1,45.888,14.354,140.367,140.367,0,0,1,36.682,27.609,147.7,147.7,0,0,1,25.458,36.346,151.583,151.583,0,0,1,13.678,41.957c.357,2.038,2.25,13.336,4.08,32.7,1.2,12.714,2.121,26.187,2.737,40.044.619,13.771.94,28.189.958,42.855v.134c-.036,29.409-1.279,57.3-3.7,82.926-1.821,19.27-3.729,30.669-4.088,32.757a151.314,151.314,0,0,1-13.669,41.895,147.6,147.6,0,0,1-25.458,36.349,140.281,140.281,0,0,1-36.682,27.609,136.292,136.292,0,0,1-45.953,14.362c-.955.119-1.83.218-2.413.28-10.366,1.166-66.874,7.007-157.4,7.037Zm183.884-115.325a63.15,63.15,0,0,0,11.372-27.107l.039-.2c.2-1.19,1.69-10.277,3.166-25.9.741-7.864,1.559-18.231,2.2-30.8s1.092-27.317,1.11-43.968c-.039-33.248-1.818-58.982-3.306-74.711-1.508-15.961-3.032-25.1-3.166-25.89l-.042-.227c-4.4-25.874-23.062-45.229-46.447-48.151l-.241-.033c-.2-.023-.44-.051-.6-.071l-.086-.009c-9.581-1.08-61.747-6.48-147.866-6.511-86.1.03-138.264,5.431-147.845,6.511l-.926.113c-23.387,2.922-42.061,22.277-46.456,48.17l-.032.181c-.187,1.116-1.682,10.212-3.172,25.917-1.482,15.729-3.265,41.466-3.3,74.765.021,17.524.525,32.961,1.215,45.944,15.879-38.019,57.667-122.446,113.242-115.439,71.533,9.016,62.518,159.3,117.822,146.074,29.207-6.985,47.517-32.749,71.133-32.75C-8020.78-11568.874-7996.75-11550.1-7958.753-11484.787Z" transform="translate(8829.242 12128.275)" fill="#e2e2e2" stroke="rgba(0,0,0,0)" stroke-miterlimit="10" stroke-width="1"/>
    <circle id="Ellipse_600" data-name="Ellipse 600" cx="43.5" cy="43.5" r="43.5" transform="translate(738 429)" fill="#e2e2e2"/>
  </g>
</svg>
