<svg width="20" height="20" viewBox="0 0 20 20" fill="none" xmlns="http://www.w3.org/2000/svg">
<path fill-rule="evenodd" clip-rule="evenodd" d="M5.06137 0.0426517C4.66789 0.148162 4.30346 0.453778 4.10844 0.841665C4.01582 1.02593 4.0157 1.02851 4.00415 2.80618L3.99255 4.5862L4.07774 4.65466C4.18935 4.74437 4.35964 4.74167 4.4762 4.64837L4.56961 4.57364L4.58939 2.85856C4.60704 1.33017 4.61661 1.13007 4.67758 1.0199C4.77258 0.848238 5.00206 0.670705 5.19696 0.618087C5.31601 0.585969 6.77505 0.576853 10.5242 0.584834L15.6874 0.595827L15.7072 2.08244C15.7263 3.51803 15.7299 3.57452 15.8137 3.72925C15.8613 3.81735 15.9669 3.94719 16.0482 4.01777C16.3433 4.27401 16.3292 4.27202 17.9525 4.2852L19.4263 4.29717L19.4254 11.5422C19.4246 18.5053 19.4217 18.7934 19.3514 18.9465C19.2637 19.1375 19.0426 19.3268 18.8359 19.3881C18.7314 19.419 18.0591 19.4327 16.6445 19.4327H14.6038L14.6906 19.2469C14.7607 19.0968 14.7773 18.9897 14.7772 18.6894C14.7769 18.1099 14.7849 18.1206 13.1613 16.5076C12.3973 15.7487 11.7022 15.0797 11.6165 15.021C11.4876 14.9327 11.4173 14.914 11.2098 14.913L10.959 14.9118L10.6869 14.6447L10.4146 14.3776L10.6148 14.0591C10.9748 13.4859 11.206 12.9172 11.3803 12.1757C11.485 11.7308 11.486 10.4071 11.3821 9.92626C10.9097 7.73981 9.27675 6.05505 7.12156 5.53067C5.16325 5.05413 3.12378 5.60437 1.70486 6.99204C0.577809 8.09425 0.000475143 9.46397 3.61815e-07 11.0366C-0.000197464 11.7096 0.0807132 12.2332 0.276046 12.8227C0.933222 14.8062 2.56524 16.2188 4.68831 16.6418C5.22453 16.7486 6.32899 16.7393 6.87183 16.6234C7.58463 16.4711 8.352 16.1612 8.86974 15.8164L9.07849 15.6774L9.36193 15.9558L9.64534 16.2342L9.64324 16.4551C9.64209 16.5767 9.66386 16.7198 9.69159 16.7732C9.71937 16.8266 10.3227 17.4469 11.0324 18.1515L12.3227 19.4327H8.82666C6.32151 19.4327 5.2878 19.4201 5.17978 19.3881C5.0969 19.3635 4.96538 19.2915 4.88752 19.2281C4.63663 19.0236 4.61301 18.9412 4.59015 18.1917C4.57104 17.5645 4.5636 17.512 4.48281 17.4321C4.37515 17.3257 4.18445 17.3201 4.07263 17.4201C3.9935 17.491 3.99062 17.5248 4.00332 18.2384C4.01558 18.9276 4.02349 18.9967 4.11006 19.1698C4.25792 19.4655 4.52229 19.7274 4.81863 19.8716L5.0823 20H12.0079H18.9334L19.1971 19.8716C19.4931 19.7276 19.7573 19.4661 19.9061 19.1698L20 18.9828V11.5294V4.07598L19.8734 3.82251C19.7615 3.59843 19.5484 3.37364 18.0337 1.88218C16.4452 0.318066 16.3032 0.188496 16.0831 0.102155L15.8457 0.00900739L10.5439 0.00157434C6.43032 -0.0041765 5.2017 0.00501701 5.06137 0.0426517ZM18.9911 3.6764C18.9911 3.69267 18.4703 3.70593 17.8338 3.70589C16.8111 3.70585 16.6605 3.69791 16.5386 3.63743C16.3065 3.52234 16.3019 3.49417 16.3013 2.18048L16.3007 0.987471L17.6459 2.31717C18.3857 3.0485 18.9911 3.66016 18.9911 3.6764ZM6.13156 1.99387C5.8736 2.16573 5.83732 2.28168 5.82193 2.98332C5.80297 3.84493 5.87352 4.05932 6.22822 4.21862C6.38078 4.28712 6.55554 4.29111 9.41784 4.29193L12.4461 4.29279L12.6223 4.20477C12.9685 4.03181 13.0428 3.7715 13.0086 2.85066C12.9881 2.29874 12.9444 2.16796 12.7305 2.01707L12.6013 1.92595L9.43311 1.91551L6.26486 1.90502L6.13156 1.99387ZM12.4149 3.02135C12.4212 3.30107 12.4164 3.56963 12.4042 3.61818L12.3821 3.70648L9.40561 3.69643L6.42917 3.68641L6.41809 3.14059C6.41204 2.84041 6.41596 2.57181 6.42688 2.54376C6.44294 2.50229 7.00528 2.49458 9.42508 2.50276L12.4035 2.51277L12.4149 3.02135ZM6.71004 6.03494C7.77399 6.24948 8.70911 6.75689 9.45709 7.52558C10.1677 8.2559 10.6444 9.18343 10.8191 10.1759C10.9538 10.9415 10.8771 11.9398 10.6268 12.677C10.1025 14.2215 8.78262 15.4811 7.21652 15.9319C4.52933 16.7052 1.72947 15.277 0.849107 12.6839C0.506157 11.6737 0.502556 10.4357 0.83973 9.43724C1.103 8.65764 1.48357 8.06017 2.11274 7.43881C2.99168 6.57083 3.96217 6.11491 5.262 5.9594C5.53069 5.92728 6.40132 5.97266 6.71004 6.03494ZM5.0161 6.58061C4.3873 6.68244 3.67516 6.96302 3.14831 7.31648C2.81336 7.54123 2.3201 8.0173 2.04801 8.37839C1.74779 8.7768 1.45358 9.37614 1.32658 9.84802C1.16678 10.4418 1.19712 10.6221 1.46806 10.6889C1.65497 10.7351 1.75997 10.589 1.8757 10.1219C2.23867 8.65689 3.38404 7.54628 4.88613 7.20279C5.1109 7.15139 5.35751 7.13042 5.73678 7.13042C6.33255 7.13042 6.70261 7.1963 7.19867 7.39065C8.36798 7.84876 9.24541 8.82562 9.58172 10.0436C9.66243 10.336 9.67323 10.4611 9.67133 11.0803C9.66928 11.7343 9.66136 11.8096 9.56008 12.1366C9.50009 12.3303 9.36316 12.6539 9.25582 12.8559C9.06907 13.2071 8.79607 13.6037 8.741 13.6037C8.72664 13.6037 8.66567 13.5334 8.60545 13.4475C8.47666 13.2637 8.22266 13.0884 7.92655 12.9788C7.75523 12.9154 6.93006 12.743 6.79812 12.743C6.78015 12.743 6.76547 12.6617 6.76547 12.5624C6.76547 12.3981 6.78482 12.3612 6.9794 12.1533C7.19369 11.9245 7.36552 11.6221 7.41703 11.3832C7.43215 11.3131 7.47962 11.2371 7.52255 11.2144C7.56548 11.1917 7.63515 11.1171 7.67745 11.0485C7.74748 10.9349 7.75433 10.8463 7.75444 10.0518C7.7546 9.26018 7.7474 9.16586 7.67638 9.02819C7.59563 8.87171 7.44706 8.74468 7.26451 8.67606C7.20686 8.65439 7.14111 8.58792 7.11832 8.52838C7.09557 8.46884 7.02914 8.37009 6.97066 8.30902C6.76472 8.09378 6.729 8.08756 5.70066 8.08756C4.83921 8.08756 4.73036 8.09507 4.53345 8.16791C4.24838 8.27335 3.96197 8.53272 3.81625 8.81737L3.69918 9.04603L3.68644 9.9051C3.67944 10.3776 3.68438 10.8205 3.69744 10.8894C3.71077 10.9597 3.79006 11.0847 3.87833 11.1746C3.96478 11.2627 4.03548 11.3655 4.03552 11.4031C4.03556 11.5401 4.26528 11.9464 4.46445 12.1617C4.64839 12.3605 4.66852 12.4001 4.66852 12.5626C4.66852 12.6619 4.66409 12.743 4.65863 12.743C4.57946 12.7435 3.91145 12.8785 3.68371 12.9401C3.29929 13.044 3.09696 13.1622 2.87634 13.4116L2.69973 13.6112L2.52176 13.3629C2.18455 12.8924 1.91634 12.2977 1.84124 11.8541C1.80168 11.6206 1.6882 11.4911 1.5231 11.4911C1.42684 11.4911 1.36785 11.5194 1.30838 11.5942C1.20357 11.7259 1.20527 11.7842 1.3269 12.233C1.69378 13.5872 2.72323 14.7254 4.05174 15.2457C4.52953 15.4329 4.95343 15.521 5.5018 15.5472C6.53164 15.5963 7.42637 15.3549 8.26076 14.8029C9.30251 14.1136 9.99869 13.0713 10.2305 11.854C10.3292 11.3359 10.2909 10.3879 10.1512 9.89129C9.93515 9.12306 9.57404 8.48828 9.03663 7.93213C8.3954 7.26844 7.62977 6.83881 6.72591 6.63542C6.27348 6.53362 5.4662 6.50772 5.0161 6.58061ZM12.5024 7.69635C12.3846 7.81285 12.3969 8.02223 12.5275 8.12383C12.6306 8.20402 12.6613 8.20492 15.2359 8.20492C17.0601 8.20492 17.8689 8.1919 17.9364 8.1615C18.0304 8.11909 18.1207 7.97927 18.1207 7.87583C18.1207 7.84747 18.0837 7.77787 18.0386 7.72119L17.9567 7.6181H15.2691C12.6343 7.6181 12.58 7.61963 12.5024 7.69635ZM6.58656 8.83086C6.66977 9.10737 6.74427 9.17271 7.05232 9.23921C7.14118 9.25838 7.16113 9.28393 7.16113 9.37852V9.4944L6.75531 9.49272C6.30114 9.49088 6.32468 9.48548 5.83732 9.70303L5.48285 9.86124L4.87786 9.87943L4.27287 9.89762L4.27374 9.56963C4.27497 9.1071 4.38013 8.89561 4.68839 8.7356C4.78769 8.68408 4.94841 8.67567 5.67621 8.684L6.54537 8.69394L6.58656 8.83086ZM12.5024 9.45681C12.3846 9.57331 12.3969 9.78269 12.5275 9.88428C12.6306 9.96448 12.6609 9.96538 15.2729 9.96538C17.7302 9.96538 17.9199 9.96061 17.9975 9.89692C18.0433 9.85925 18.0918 9.7724 18.1052 9.7039C18.1248 9.60343 18.1099 9.55993 18.028 9.47895L17.9264 9.37856H15.254C12.6343 9.37856 12.58 9.38009 12.5024 9.45681ZM7.16113 10.3893C7.16113 10.683 7.1584 10.6913 7.02747 10.7946C6.92124 10.8784 6.88809 10.9386 6.86593 11.088C6.80638 11.4897 6.58082 11.8127 6.23491 11.9914C5.94161 12.143 5.53057 12.1415 5.21357 11.9875C5.08898 11.927 4.92415 11.8049 4.84724 11.716C4.71861 11.5674 4.67228 11.4544 4.55129 10.9939C4.52095 10.8783 4.47299 10.8087 4.39046 10.7605C4.30733 10.712 4.27287 10.6616 4.27287 10.5887V10.4855L4.91581 10.4631C5.59106 10.4395 5.81947 10.3908 6.1409 10.2021C6.317 10.0987 6.56108 10.0586 6.90609 10.0763L7.16113 10.0894V10.3893ZM12.5275 11.2201C12.3969 11.3217 12.3846 11.5311 12.5024 11.6476C12.58 11.7243 12.6343 11.7258 15.254 11.7258H17.9264L18.028 11.6255C18.1099 11.5445 18.1248 11.501 18.1052 11.4005C18.0918 11.332 18.0433 11.2451 17.9975 11.2075C17.9199 11.1438 17.7302 11.139 15.2729 11.139C12.6609 11.139 12.6306 11.1399 12.5275 11.2201ZM6.1792 12.8535C6.19411 13.0388 6.1769 13.0623 5.97817 13.1285C5.78921 13.1915 5.56816 13.1842 5.37773 13.1089C5.22738 13.0494 5.2167 13.0355 5.23842 12.928C5.2514 12.8639 5.262 12.7829 5.262 12.7479C5.262 12.6929 5.32313 12.6843 5.71379 12.6843H6.16559L6.1792 12.8535ZM12.6211 12.9265C12.4877 12.9767 12.4233 13.0711 12.4233 13.2163C12.4233 13.4875 12.4162 13.4863 13.9934 13.4863C15.3767 13.4863 15.3882 13.4856 15.4683 13.4007C15.5695 13.2932 15.5716 13.1315 15.4733 13.0114L15.3977 12.919L14.0391 12.9116C13.2919 12.9075 12.6538 12.9142 12.6211 12.9265ZM4.80415 13.4626C5.08091 13.6715 5.30794 13.7406 5.717 13.7406C6.02442 13.7406 6.10553 13.7256 6.31048 13.6308C6.44104 13.5704 6.59507 13.4763 6.65279 13.4218L6.75772 13.3225L7.20441 13.407C7.71832 13.5043 7.8873 13.5657 8.04632 13.7133C8.17439 13.8322 8.29253 14.0722 8.2407 14.1081C7.68536 14.4932 7.44781 14.6212 7.02265 14.7646C6.05742 15.0902 4.88724 15.0204 3.99517 14.584C3.69178 14.4356 3.20462 14.097 3.20477 14.0347C3.20501 13.9319 3.35698 13.7235 3.49111 13.642C3.64173 13.5504 3.81103 13.4991 4.27287 13.4051C4.45784 13.3675 4.61349 13.3351 4.61871 13.3332C4.62397 13.3313 4.70742 13.3896 4.80415 13.4626ZM10.2979 15.0817L10.5242 15.3078L10.2868 15.5401L10.0494 15.7724L9.81195 15.5401L9.57452 15.3078L9.80083 15.0817C9.92526 14.9573 10.0372 14.8555 10.0494 14.8555C10.0616 14.8555 10.1735 14.9573 10.2979 15.0817ZM12.6887 16.8996C13.4764 17.6796 14.1395 18.3673 14.1623 18.4279C14.3916 19.0377 13.7496 19.6395 13.1677 19.3603C13.0515 19.3045 12.5499 18.8356 11.5984 17.8931C10.3879 16.6942 10.2052 16.4981 10.24 16.4348C10.2932 16.3382 11.1743 15.4815 11.2206 15.4815C11.2403 15.4815 11.901 16.1197 12.6887 16.8996Z" fill="#404040"/>
</svg>
