<svg width="12" height="18" viewBox="0 0 12 18" fill="none" xmlns="http://www.w3.org/2000/svg">
<path fill-rule="evenodd" clip-rule="evenodd" d="M1.13715 0.0505697C0.586707 0.200795 0.1396 0.734495 0.0335175 1.36796C-0.0133211 1.6477 -0.0100402 16.7081 0.0369235 16.9572C0.0879804 17.2279 0.193188 17.4392 0.3692 17.6245C0.638764 17.9082 0.94823 18.0307 1.30182 17.9935C1.72461 17.9491 1.64781 18.0219 3.70452 15.7153C4.99729 14.2655 5.61538 13.5958 5.69549 13.5583C5.84466 13.4885 6.15763 13.4885 6.3068 13.5583C6.38692 13.5958 7.00501 14.2655 8.29777 15.7153C10.3545 18.0219 10.2777 17.9491 10.7005 17.9935C11.2867 18.0551 11.8251 17.6257 11.958 16.9904C11.9918 16.8285 11.9996 15.3861 12 9.1746C12.0003 4.16597 11.9896 1.49251 11.9688 1.36796C11.8604 0.7205 11.3857 0.171749 10.8194 0.0392818C10.5668 -0.0198307 1.35572 -0.00910538 1.13715 0.0505697ZM10.8268 1.17448C10.8917 1.23025 10.9712 1.34102 11.0033 1.42064C11.0598 1.56056 11.0618 1.81878 11.0624 9.17141L11.0631 16.7775L10.9864 16.8638C10.9363 16.9201 10.8743 16.9501 10.8078 16.9501C10.7149 16.9501 10.5421 16.7662 8.83006 14.845C6.82559 12.5957 6.85727 12.6267 6.43451 12.5001C6.04886 12.3845 5.50801 12.4628 5.15749 12.6849C5.07178 12.7392 4.30327 13.5739 3.18895 14.8231C2.1836 15.9501 1.33031 16.8898 1.29279 16.9112C1.18574 16.9722 1.09906 16.9574 1.01591 16.8638L0.9392 16.7775V9.17907C0.9392 0.912606 0.927951 1.45211 1.10474 1.23609C1.2582 1.04859 1.00666 1.05731 6.03483 1.06547L10.7086 1.07306L10.8268 1.17448Z" fill="#878787"/>
</svg>
