<svg width="16" height="16" viewBox="0 0 16 16" fill="none" xmlns="http://www.w3.org/2000/svg">
<path fill-rule="evenodd" clip-rule="evenodd" d="M7.25578 0.0325706C7.10768 0.0585656 6.78144 0.147017 6.53079 0.229081C5.08961 0.701216 4.02933 1.79949 3.56869 3.29737C3.44589 3.69673 3.43264 3.81353 3.43264 4.50129C3.43264 5.18438 3.44629 5.30674 3.56459 5.68748C3.83328 6.55199 4.16598 7.11106 4.75807 7.69297C6.55114 9.45522 9.45035 9.45399 11.2449 7.69032C13.0394 5.92659 13.0407 3.07722 11.2476 1.31497C10.3882 0.470357 9.3678 0.0382217 8.15012 0.00328328C7.80637 -0.00659381 7.40393 0.00657568 7.25578 0.0325706ZM8.68971 1.23674C9.72694 1.44386 10.6253 2.14499 11.0782 3.10081C11.61 4.22306 11.4576 5.54232 10.6797 6.55121C10.0832 7.32477 9.0085 7.8428 8.00012 7.8428C6.99173 7.8428 5.917 7.32477 5.32056 6.55121C4.70717 5.75563 4.47847 4.78252 4.67962 3.82356C5.05711 2.02371 6.84744 0.868831 8.68971 1.23674ZM7.00013 10.6491C4.24348 10.9557 1.74211 12.502 0.266786 14.8115C-0.0192597 15.2593 -0.0603593 15.4475 0.0726887 15.7003C0.175687 15.896 0.362884 16 0.612331 16C0.891776 16 1.00282 15.9183 1.23097 15.545C1.75211 14.6921 2.5729 13.8193 3.40294 13.2353C3.95573 12.8464 5.00132 12.3254 5.58651 12.1472C6.49899 11.8694 6.95229 11.8052 8.00012 11.8052C8.81696 11.8052 9.05845 11.8228 9.48875 11.9136C10.8577 12.2025 12.0135 12.7408 13.0582 13.5757C13.6768 14.0702 14.3956 14.8862 14.7708 15.52C14.9754 15.8655 15.1611 16 15.4339 16C15.6244 16 15.6868 15.9737 15.83 15.8329C15.9724 15.693 16 15.6303 16 15.4473C16 15.2679 15.9518 15.1532 15.7305 14.8068C14.4373 12.7825 12.3577 11.3376 9.99614 10.8228C8.9949 10.6046 7.94677 10.5438 7.00013 10.6491Z" fill="#878787"/>
</svg>
